<svg width="64" height="64" viewBox="0 0 64 64" fill="none" xmlns="http://www.w3.org/2000/svg">
<path d="M13.4592 46.9518H16.1614L14.8963 49.9637C14.8017 50.8931 13.3818 51.6332 11.6434 51.6332C9.90508 51.6332 8.37328 50.8415 8.37328 49.8691C8.37328 48.8966 9.83624 48.0963 11.6434 48.0963C11.7811 48.0963 11.9102 48.0963 12.0393 48.1135L12.5728 46.8485C12.8654 46.9173 13.1666 46.9518 13.4678 46.9518H13.4592ZM52.1931 48.0963C52.0554 48.0963 51.9263 48.0963 51.7972 48.1135L51.2637 46.8485C50.9711 46.9173 50.6699 46.9518 50.3687 46.9518H47.6665L48.9316 49.9637C49.0262 50.8931 50.4462 51.6332 52.1845 51.6332C53.9228 51.6332 55.4546 50.8415 55.4546 49.8691C55.4546 48.8966 53.9917 48.0963 52.1845 48.0963H52.1931ZM59.0432 29.1984H4.78474C3.52832 29.1984 2.90871 30.0245 3.42505 31.0486L10.2235 44.5078C10.9205 45.6265 12.1339 46.3236 13.4506 46.358H50.3687C51.6854 46.3236 52.8988 45.6351 53.5958 44.5078L60.3943 31.0486C60.9106 30.0331 60.2996 29.207 59.0432 29.207V29.1984Z" fill="url(#paint0_linear_10_2207)"/>
<path d="M61.7195 25.0591H2.2891C1.10152 24.9902 0.0774506 25.8938 0 27.0814V27.1761C0.0860562 28.3636 1.10152 29.2672 2.2891 29.1984H2.47842C3.04639 28.5099 3.89835 28.1399 4.78472 28.1915H59.0432C59.9295 28.1399 60.7815 28.5099 61.3495 29.1898L61.7109 29.1984C62.8985 29.2672 63.9226 28.3636 64 27.1761V27.0814C63.9139 25.8938 62.8985 24.9988 61.7195 25.0591Z" fill="#0B4C80"/>
<path d="M8.24432 20.9456V20.5497C8.24432 20.4034 8.35619 20.2916 8.50249 20.2829H10.9293C11.0756 20.2829 11.196 20.4034 11.196 20.5497V20.9456C12.332 21.1607 13.1151 21.6082 13.1151 22.1246C13.1151 22.6409 12.418 23.0454 11.3854 23.2691C11.3079 23.3552 11.2305 23.4412 11.1358 23.5187C10.215 24.3018 8.84671 24.1899 8.0636 23.2691C7.03093 23.0454 6.33387 22.6151 6.33387 22.1246C6.33387 21.6082 7.12559 21.1607 8.25292 20.9456H8.24432ZM10.1806 17.5205C10.1806 15.2314 12.0308 13.3726 14.3199 13.364C16.1529 13.364 17.7707 14.5602 18.2957 16.3158C18.1408 16.4621 18.0547 16.6686 18.0547 16.8751V17.9164C18.0547 18.3467 18.3989 18.6909 18.8292 18.6909C19.2595 18.6909 19.6037 18.3467 19.6037 17.9164V16.8751C19.6037 16.6428 19.5005 16.419 19.3111 16.2727C18.6399 13.5189 15.8517 11.8322 13.0979 12.5207C10.8002 13.0887 9.18233 15.154 9.19094 17.5205V19.3966H10.1892V17.5292L10.1806 17.5205ZM10.9809 19.8096C10.9809 19.6892 10.8776 19.5859 10.7572 19.5859H8.69181C8.57133 19.5859 8.46807 19.6892 8.46807 19.8096V20.1194H10.9809V19.8096ZM3.36493 22.7183L3.64892 22.4344C3.61449 22.3311 3.59728 22.2278 3.59728 22.1246C3.59728 22.0213 3.61449 21.918 3.64892 21.8147L3.36493 21.5308C3.36493 21.5308 3.29609 21.5308 3.27027 21.5308C2.92605 21.5049 2.66788 21.2038 2.7023 20.8595C2.73672 20.5153 3.02931 20.2571 3.37354 20.2916C3.71776 20.3174 3.97593 20.6186 3.94151 20.9628L4.22549 21.2468C4.42342 21.1779 4.63856 21.1779 4.8451 21.2468L5.12908 20.9628C5.12908 20.9628 5.12908 20.9026 5.12908 20.8681C5.1549 20.5239 5.4561 20.2657 5.80032 20.2916C6.14455 20.3174 6.40272 20.6186 6.3769 20.9628C6.35108 21.307 6.04989 21.5652 5.70566 21.5394L5.42168 21.8234C5.49052 22.0213 5.49052 22.2364 5.42168 22.443L5.70566 22.7269C5.70566 22.7269 5.77451 22.7269 5.80032 22.7269C6.14455 22.7528 6.40272 23.054 6.3769 23.3982C6.35108 23.7424 6.04989 24.0006 5.70566 23.9748C5.36144 23.9489 5.10327 23.6477 5.12908 23.3035L4.8451 23.0195C4.64717 23.0884 4.43203 23.0884 4.22549 23.0195L3.94151 23.3035C3.95872 23.4842 3.88987 23.665 3.76079 23.794C3.51983 24.035 3.12397 24.035 2.88302 23.794C2.64206 23.5531 2.64206 23.1572 2.88302 22.9163C3.0121 22.7872 3.19282 22.7183 3.37354 22.7356L3.36493 22.7183ZM4.19968 22.5204H4.3804V22.1934H4.67299V22.5204H4.8537V21.7287H4.67299V22.0299H4.3804V21.7287H4.19968V22.5204ZM13.4937 22.7097L13.7777 22.4257C13.7089 22.2278 13.7089 22.0127 13.7777 21.8147L13.4937 21.5308C13.4937 21.5308 13.4249 21.5308 13.3991 21.5308C13.0549 21.5049 12.7967 21.2038 12.8225 20.8595C12.8483 20.5153 13.1495 20.2571 13.4937 20.2829C13.838 20.3088 14.0961 20.61 14.0703 20.9542L14.3543 21.2382C14.4576 21.2038 14.5608 21.1865 14.6641 21.1865C14.7674 21.1865 14.8706 21.2038 14.9739 21.2382L15.2579 20.9542C15.2579 20.9542 15.2579 20.8853 15.2579 20.8595C15.2837 20.5153 15.5849 20.2571 15.9291 20.2829C16.2734 20.3088 16.5315 20.61 16.4971 20.9542C16.4713 21.2984 16.1701 21.5566 15.8259 21.5222L15.5419 21.8061C15.6107 22.0041 15.6107 22.2192 15.5419 22.4171L15.8259 22.7011C16.0066 22.6839 16.1873 22.7528 16.3164 22.8818C16.5573 23.1228 16.5573 23.5187 16.3164 23.7596C16.0754 24.0006 15.6796 24.0006 15.4386 23.7596C15.3095 23.6305 15.2407 23.4498 15.2579 23.2691L14.9739 22.9851C14.8706 23.0195 14.7674 23.0367 14.6641 23.0367C14.5608 23.0367 14.4576 23.0195 14.3543 22.9851L14.0703 23.2691C14.0875 23.4498 14.0187 23.6305 13.8896 23.751C13.6486 23.992 13.2528 23.992 13.0118 23.751C12.7709 23.5101 12.7709 23.1142 13.0118 22.8732C13.1409 22.7442 13.3216 22.6753 13.5024 22.6925L13.4937 22.7097ZM14.776 21.7029C14.776 21.7029 14.7416 21.7029 14.7244 21.7029C14.5006 21.7115 14.3285 21.9008 14.3457 22.1246C14.3457 22.1418 14.3457 22.1676 14.3457 22.1848C14.3629 22.3913 14.5522 22.5376 14.7588 22.5204C14.8276 22.5204 14.8965 22.5118 14.9653 22.486L14.9395 22.3483C14.8879 22.3655 14.8448 22.3741 14.7932 22.3741C14.6469 22.3741 14.535 22.2536 14.535 22.1159C14.535 21.9783 14.6555 21.8578 14.7932 21.8578C14.8448 21.8578 14.8965 21.8664 14.9481 21.8922L14.9825 21.7459C14.9223 21.7201 14.8534 21.7115 14.7846 21.7115L14.776 21.7029Z" fill="#E9AF21"/>
<defs>
<linearGradient id="paint0_linear_10_2207" x1="3.24433" y1="40.4115" x2="60.5836" y2="40.4115" gradientUnits="userSpaceOnUse">
<stop stop-color="#D0D6E9"/>
<stop offset="1" stop-color="#D0D6E9"/>
</linearGradient>
</defs>
</svg>
